<svg width="20" height="20" viewBox="0 0 20 20" fill="none" xmlns="http://www.w3.org/2000/svg">
<path d="M16.92 6.5H17.7894L17.3522 5.74855C16.3329 3.99675 14.7081 2.63672 12.752 1.96696L11.542 1.55268L12.1501 2.67776C12.7294 3.74935 13.175 4.9108 13.4856 6.124L13.5819 6.5H13.97H16.92ZM10.4112 1.75557L10 1.16104L9.58878 1.75557C8.72986 2.99739 8.05664 4.37461 7.61118 5.85602L7.41753 6.5H8.09H11.91H12.5825L12.3888 5.85602C11.9434 4.37461 11.2701 2.99739 10.4112 1.75557ZM1.77493 12.1213L1.86961 12.5H2.26H5.64H6.20427L6.13637 11.9398C6.05746 11.2888 6 10.6512 6 10C6 9.34875 6.05746 8.71116 6.13637 8.06017L6.20427 7.5H5.64H2.26H1.86961L1.77493 7.87873C1.60698 8.55052 1.5 9.26173 1.5 10C1.5 10.7383 1.60698 11.4495 1.77493 12.1213ZM3.08 13.5H2.21325L2.64717 14.2503C3.66719 16.0141 5.29303 17.3637 7.24803 18.033L8.458 18.4473L7.84985 17.3222C7.27061 16.2506 6.82496 15.0892 6.51438 13.876L6.41812 13.5H6.03H3.08ZM6.03 6.5H6.41812L6.51438 6.124C6.82496 4.9108 7.27061 3.74935 7.84985 2.67776L8.45801 1.55268L7.24803 1.96696C5.29303 2.63633 3.66719 3.9859 2.64717 5.74969L2.21325 6.5H3.08H6.03ZM9.58878 18.2444L10 18.839L10.4112 18.2444C11.2701 17.0026 11.9434 15.6254 12.3888 14.144L12.5825 13.5H11.91H8.09H7.41753L7.61118 14.144C8.05664 15.6254 8.72986 17.0026 9.58878 18.2444ZM12.34 12.5H12.7764L12.8354 12.0676C12.9266 11.3991 13 10.7133 13 10C13 9.28703 12.9267 8.59139 12.8353 7.93142L12.7755 7.5H12.34H7.66H7.22446L7.16472 7.93142C7.07334 8.59139 7 9.28703 7 10C7 10.7133 7.07343 11.3991 7.16458 12.0676L7.22355 12.5H7.66H12.34ZM12.1501 17.3222L11.542 18.4473L12.752 18.033C14.7081 17.3633 16.3329 16.0032 17.3522 14.2514L17.7894 13.5H16.92H13.97H13.5819L13.4856 13.876C13.175 15.0892 12.7294 16.2506 12.1501 17.3222ZM13.8636 11.9398L13.7957 12.5H14.36H17.74H18.1304L18.2251 12.1213C18.393 11.4495 18.5 10.7383 18.5 10C18.5 9.26173 18.393 8.55052 18.2251 7.87873L18.1304 7.5H17.74H14.36H13.7957L13.8636 8.06017C13.9425 8.71116 14 9.34875 14 10C14 10.6512 13.9425 11.2888 13.8636 11.9398ZM0.5 10C0.5 4.75549 4.74679 0.5 9.99 0.5C15.2442 0.5 19.5 4.75647 19.5 10C19.5 15.2435 15.2442 19.5 9.99 19.5C4.74679 19.5 0.5 15.2445 0.5 10Z" fill="#6BBBAE" stroke="#6BBBAE"/>
</svg>
