<svg width="169" height="25" viewBox="0 0 169 25" fill="none" xmlns="http://www.w3.org/2000/svg">
<path fill-rule="evenodd" clip-rule="evenodd" d="M66.3922 15.6515C66.4121 15.1526 66.5037 14.5065 66.6641 13.7313C66.8242 12.9431 66.9968 12.2861 67.1775 11.7782C67.3553 11.2774 67.5611 10.8818 67.7888 10.6021C68.0122 10.3275 68.2736 10.1336 68.5656 10.0254C68.8636 9.9154 69.2268 9.85946 69.6452 9.85946C69.7902 9.85946 69.9549 9.86629 70.1344 9.87955C70.2722 9.88971 70.4006 9.90794 70.5177 9.93405L69.0088 17.4395C68.8822 17.4706 68.7446 17.4948 68.599 17.5118C68.4274 17.5315 68.2676 17.5415 68.124 17.5415C67.7073 17.5415 67.3663 17.4861 67.1102 17.3773C66.8622 17.2719 66.6808 17.0868 66.5555 16.8113C66.4276 16.5301 66.3727 16.1399 66.3922 15.6515ZM71.8212 8.32529C71.0017 8.19641 70.14 8.13135 69.26 8.13135C68.3482 8.13135 67.5437 8.23164 66.8682 8.42952C66.1867 8.62906 65.593 8.95748 65.1034 9.40567C64.6156 9.8522 64.2047 10.4367 63.8825 11.1427C63.563 11.8433 63.2978 12.7003 63.0945 13.6901C62.6977 15.6468 62.8618 17.0783 63.5827 17.9445C64.3033 18.8106 65.5379 19.2495 67.2521 19.2495C68.1315 19.2495 68.9862 19.1877 69.7925 19.0659C70.5973 18.9442 71.417 18.7656 72.2286 18.5356L72.2895 18.5184L74.2269 8.89449L74.1386 8.86631C73.4198 8.6359 72.6401 8.45376 71.8212 8.32529Z" fill="black"/>
<path fill-rule="evenodd" clip-rule="evenodd" d="M51.728 8.15179C51.5898 8.1379 51.4533 8.13086 51.3223 8.13086H50.9266C49.9123 8.13086 48.9038 8.20981 47.9293 8.36542C46.9542 8.52124 46.0543 8.7444 45.2541 9.02931L45.1992 9.04899L43.1538 18.9653H46.6508L48.4353 10.3463C48.8267 10.3503 49.2577 10.3805 49.7177 10.4365C50.2098 10.4963 50.6408 10.5805 50.9985 10.6863L51.0979 10.716L51.8526 8.16422L51.728 8.15179Z" fill="black"/>
<path fill-rule="evenodd" clip-rule="evenodd" d="M54.6602 15.7035C54.6867 15.1843 54.7814 14.5135 54.9422 13.7106C55.1026 12.9079 55.2754 12.2334 55.4557 11.7061C55.6345 11.1833 55.8282 10.7652 56.0317 10.4628C56.2302 10.1684 56.4455 9.96182 56.6718 9.84868C56.8993 9.73472 57.1498 9.67711 57.4161 9.67711C57.6792 9.67711 57.903 9.73327 58.0814 9.84412C58.2544 9.95146 58.386 10.1533 58.4728 10.4448C58.5636 10.749 58.5928 11.1634 58.5601 11.676C58.5265 12.1978 58.4283 12.8685 58.2679 13.6702C58.1071 14.4731 57.9343 15.1474 57.7542 15.6747C57.5754 16.1979 57.3815 16.6161 57.1782 16.918C56.9795 17.2126 56.7642 17.4192 56.5383 17.5321C56.3108 17.6461 56.0603 17.7037 55.7936 17.7037C55.5313 17.7037 55.3115 17.648 55.1399 17.5377C54.9729 17.4304 54.8442 17.228 54.7574 16.9362C54.6664 16.631 54.6339 16.2164 54.6602 15.7035ZM57.5986 8.13135C56.6873 8.13135 55.8792 8.23143 55.1971 8.42952C54.5096 8.62864 53.906 8.95313 53.4033 9.39428C52.9014 9.83397 52.48 10.4154 52.1509 11.1218C51.8244 11.8219 51.5625 12.6795 51.3722 13.6706C51.003 15.5989 51.1667 17.0259 51.8586 17.9115C52.5523 18.7994 53.8011 19.2495 55.5707 19.2495C56.4818 19.2495 57.2932 19.1494 57.9822 18.9515C58.6765 18.7522 59.2834 18.4275 59.7863 17.9867C60.2884 17.5464 60.7098 16.9685 61.0389 16.2694C61.3652 15.5757 61.6273 14.7143 61.8171 13.7104C62.2003 11.7821 62.0399 10.3549 61.3408 9.46887C60.6404 8.58099 59.3814 8.13135 57.5986 8.13135Z" fill="black"/>
<path fill-rule="evenodd" clip-rule="evenodd" d="M126.824 12.9168C126.962 12.3182 127.107 11.8099 127.257 11.4042C127.415 10.9753 127.586 10.6282 127.762 10.3727C127.935 10.1239 128.121 9.94337 128.315 9.83687C128.508 9.73099 128.72 9.67711 128.945 9.67711C129.28 9.67711 129.526 9.77761 129.696 9.98419C129.865 10.1891 129.905 10.5847 129.816 11.1597C129.726 11.7413 129.549 12.1541 129.291 12.3866C129.032 12.6209 128.618 12.7724 128.061 12.837C127.822 12.8638 127.585 12.8841 127.357 12.8975C127.175 12.9081 126.997 12.9145 126.824 12.9168ZM133.089 9.94607C132.941 9.50865 132.683 9.1506 132.322 8.88206C131.967 8.61746 131.514 8.42372 130.975 8.30623C130.443 8.19019 129.821 8.13135 129.127 8.13135C128.269 8.13135 127.502 8.23537 126.845 8.44029C126.185 8.64688 125.602 8.97841 125.113 9.42619C124.625 9.8723 124.214 10.4531 123.892 11.1526C123.572 11.8474 123.32 12.6951 123.144 13.6712C122.953 14.6776 122.902 15.5415 122.991 16.2385C123.081 16.9449 123.314 17.529 123.684 17.9751C124.053 18.4213 124.567 18.7497 125.213 18.9511C125.849 19.1492 126.627 19.2497 127.525 19.2497C128.314 19.2497 129.059 19.167 129.74 19.0035C130.42 18.8398 131.036 18.6187 131.568 18.3458L131.645 18.3063L131.119 16.5707L131.013 16.6175C130.586 16.8038 130.171 16.9524 129.78 17.0587C129.392 17.1639 128.947 17.2172 128.458 17.2172C128.08 17.2172 127.754 17.1681 127.49 17.0713C127.233 16.9772 127.024 16.8253 126.868 16.6194C126.71 16.4111 126.6 16.1295 126.543 15.7827C126.487 15.4499 126.487 15.0336 126.543 14.5444C126.923 14.5434 127.346 14.5365 127.802 14.5241C128.296 14.5106 128.854 14.4696 129.463 14.4019C129.953 14.3474 130.409 14.2645 130.817 14.1557C131.232 14.0448 131.601 13.8795 131.914 13.6642C132.229 13.447 132.495 13.1599 132.705 12.8109C132.913 12.463 133.061 12.0277 133.144 11.5188C133.254 10.9094 133.236 10.38 133.089 9.94607Z" fill="black"/>
<path fill-rule="evenodd" clip-rule="evenodd" d="M123.537 8.43532H121.105L121.38 7.24326C121.511 6.65686 121.682 6.25053 121.891 6.03545C122.092 5.82762 122.392 5.72215 122.78 5.72215C123.013 5.72215 123.237 5.74847 123.444 5.80006C123.654 5.85269 123.832 5.91195 123.974 5.97639L124.071 6.02094L124.736 4.41778L124.656 4.37261C124.367 4.20726 123.995 4.05392 123.55 3.91738C123.103 3.77979 122.557 3.70996 121.928 3.70996C120.774 3.70996 119.869 3.95944 119.238 4.45176C118.606 4.94492 118.167 5.76028 117.933 6.87505L117.603 8.4461L116.265 8.62865L115.918 10.2243H117.238L115.478 18.8413C115.332 19.5605 115.136 20.2088 114.897 20.7681C114.659 21.3217 114.27 21.8845 113.741 22.4409L113.683 22.501L114.522 23.7479L114.595 23.7274C115.838 23.3721 116.82 22.8024 117.513 22.0341C118.205 21.2668 118.694 20.2066 118.967 18.8829L120.755 10.2243H123.147L123.537 8.43532Z" fill="black"/>
<path fill-rule="evenodd" clip-rule="evenodd" d="M114.778 10.7163L115.532 8.16471L115.408 8.15207C115.27 8.13839 115.133 8.13135 115.002 8.13135H114.606C113.592 8.13135 112.583 8.21029 111.609 8.36591C110.634 8.52152 109.734 8.74489 108.934 9.02959L108.879 9.04928L106.833 18.9658H110.331L112.115 10.3468C112.506 10.3505 112.937 10.3808 113.397 10.4367C113.89 10.4966 114.321 10.5807 114.679 10.6868L114.778 10.7163Z" fill="black"/>
<path fill-rule="evenodd" clip-rule="evenodd" d="M80.3713 17.5118C79.7279 17.5891 79.2374 17.5238 78.8928 17.3775C78.645 17.2721 78.4635 17.0868 78.3381 16.8112C78.2103 16.5303 78.1556 16.1399 78.1749 15.6513C78.195 15.1521 78.2863 14.5063 78.4469 13.7313C78.6075 12.9416 78.7803 12.2846 78.9602 11.7782C79.1378 11.2782 79.3435 10.8824 79.5714 10.6023C79.7952 10.3275 80.0565 10.1336 80.3485 10.0256C80.6464 9.91538 81.0097 9.85964 81.428 9.85964C81.5731 9.85964 81.7376 9.86627 81.917 9.87953C82.0546 9.88969 82.1831 9.90813 82.3006 9.93403L80.7716 17.4395C80.6456 17.4708 80.5113 17.495 80.3713 17.5118ZM83.5339 3.95361L82.6251 8.35614C82.3319 8.29751 82.03 8.24612 81.7262 8.20343C81.3853 8.15557 81.053 8.13133 80.7384 8.13133C79.9206 8.13133 79.1835 8.23182 78.5478 8.43012C77.9069 8.62987 77.3409 8.9585 76.8649 9.40689C76.391 9.85322 75.9874 10.4373 75.6652 11.1429C75.3457 11.8434 75.0806 12.7002 74.8772 13.6901C74.4804 15.6469 74.6447 17.0783 75.3655 17.9447C76.086 18.8108 77.3205 19.2497 79.035 19.2497C79.9144 19.2497 80.7689 19.1879 81.5753 19.0659C82.3799 18.9442 83.1996 18.7658 84.0115 18.5356L84.0722 18.5184L87.051 3.95361H83.5339Z" fill="black"/>
<path fill-rule="evenodd" clip-rule="evenodd" d="M103.409 8.43555L101.521 17.5711C101.319 17.5935 101.125 17.6111 100.941 17.6229C100.734 17.6362 100.529 17.643 100.329 17.643C99.7332 17.643 99.3358 17.5015 99.1479 17.2222C98.9552 16.9366 98.9297 16.4377 99.0718 15.7392L100.558 8.43555H97.0406L95.6444 15.2512C95.368 16.5778 95.5404 17.5877 96.1566 18.253C96.7694 18.9142 97.9208 19.2495 99.5791 19.2495C100.432 19.2495 101.31 19.1809 102.191 19.0456C103.069 18.9103 103.947 18.7253 104.798 18.4957L104.859 18.4789L106.926 8.43555H103.409Z" fill="black"/>
<path fill-rule="evenodd" clip-rule="evenodd" d="M93.3932 8.38932C92.8247 8.21817 92.1836 8.13135 91.4874 8.13135C90.2404 8.13135 89.2578 8.38704 88.567 8.89159C87.8724 9.39842 87.4222 10.1394 87.2284 11.0942L87.228 11.0957C87.1037 11.7595 87.1153 12.313 87.2624 12.7405C87.4091 13.1665 87.6325 13.5281 87.9267 13.8152C88.2172 14.0989 88.5504 14.3337 88.9169 14.5135C89.2706 14.6872 89.6067 14.8635 89.9153 15.038C90.2153 15.2075 90.4592 15.395 90.6399 15.5952C90.8083 15.7819 90.8664 16.0156 90.8175 16.309C90.7675 16.5958 90.638 16.8131 90.4217 16.9739C90.2043 17.1351 89.8262 17.2172 89.2972 17.2172C88.8374 17.2172 88.3809 17.1438 87.9402 16.9992C87.4963 16.8533 87.083 16.672 86.7121 16.46L86.6151 16.4045L85.7568 18.2114L85.835 18.2603C86.2742 18.5348 86.8604 18.771 87.5769 18.9623C88.2928 19.1529 89.0353 19.2497 89.7839 19.2497C90.9486 19.2497 91.903 19.0048 92.6202 18.5222C93.3433 18.0352 93.8153 17.2628 94.0227 16.2251C94.1475 15.5877 94.1359 15.0508 93.9886 14.6298C93.8416 14.2102 93.6179 13.8554 93.3234 13.5747C93.0331 13.2985 92.697 13.0639 92.3247 12.8778C91.9646 12.6978 91.6249 12.5177 91.3154 12.3428C91.0149 12.1731 90.7673 11.9852 90.5794 11.7842C90.4053 11.5979 90.3444 11.3717 90.3931 11.0913C90.443 10.7917 90.569 10.5712 90.7783 10.4175C90.9886 10.2627 91.3228 10.1841 91.7712 10.1841C92.2316 10.1841 92.6581 10.2438 93.0387 10.3619C93.4231 10.4813 93.7583 10.6153 94.0352 10.7604L94.1328 10.8114L94.9258 9.0443L94.8456 8.99747C94.4483 8.76457 93.9598 8.55985 93.3932 8.38932Z" fill="black"/>
<path fill-rule="evenodd" clip-rule="evenodd" d="M163.165 15.7409C161.821 15.7668 160.463 17.0053 159.252 17.4848C157.534 18.1653 155.517 18.0113 155.204 15.9098C155.154 15.5671 155.15 14.8116 155.322 14.4569C155.856 13.3533 156.499 13.8893 157.406 13.6643C158.112 13.4888 158.853 13.3303 158.991 12.4385C159.221 10.9542 156.932 10.4996 155.874 10.5177C154.222 10.5458 152.767 11.4319 151.51 12.4275C150.692 13.0748 149.961 13.8149 149.189 14.513C148.441 15.1887 146.705 17.0909 145.469 15.7254C144.919 15.1177 145.048 13.9813 145.198 13.2739C145.45 12.0767 146.181 10.8863 147.075 10.0616C148.542 8.70708 150.008 8.81524 151.75 8.33473C152.621 8.09478 153.205 7.51377 152.701 6.53161C151.973 5.11494 149.309 4.34019 147.898 4.05776C145.994 3.6765 143.992 3.80684 142.148 4.41292C137.228 6.03038 134.896 10.8111 133.809 15.5491C133.554 16.6632 132.611 18.6787 134.113 19.0927C135.3 19.4199 136.429 19.1366 136.813 18.0134C136.822 17.9964 136.83 17.9788 136.833 17.9597C136.837 17.9446 136.839 17.9303 136.839 17.9176C137.265 14.9194 138.043 11.8154 139.96 9.40019C141.728 7.17209 144.711 5.98479 147.394 6.54964C146.366 7.02621 145.466 7.73113 144.715 8.58628C142.809 10.7586 141.25 14.6332 142.941 17.3383C144.162 19.2937 146.526 19.2373 148.41 18.33C149.733 17.6926 151.057 16.0304 152.47 14.7724C152.439 14.9952 152.42 15.2237 152.415 15.4589C152.335 19.485 155.858 20.6331 159.171 19.5676C160.471 19.1493 162.906 18.3086 163.783 17.1313C164.383 16.3263 164.159 15.7221 163.165 15.7409Z" fill="black"/>
<path fill-rule="evenodd" clip-rule="evenodd" d="M12.156 19.0188C12.156 20.1566 11.2338 21.0787 10.096 21.0787C8.9582 21.0787 8.03613 20.1566 8.03613 19.0188C8.03613 17.8813 8.9582 16.959 10.096 16.959C11.2338 16.959 12.156 17.8813 12.156 19.0188Z" fill="white"/>
<path fill-rule="evenodd" clip-rule="evenodd" d="M32.5615 19.0188C32.5615 20.1566 31.6392 21.0787 30.5015 21.0787C29.3637 21.0787 28.4414 20.1566 28.4414 19.0188C28.4414 17.8813 29.3637 16.959 30.5015 16.959C31.6392 16.959 32.5615 17.8813 32.5615 19.0188Z" fill="white"/>
<path fill-rule="evenodd" clip-rule="evenodd" d="M12.156 19.0188C12.156 20.1566 11.2338 21.0787 10.096 21.0787C8.9582 21.0787 8.03613 20.1566 8.03613 19.0188C8.03613 17.8813 8.9582 16.959 10.096 16.959C11.2338 16.959 12.156 17.8813 12.156 19.0188Z" fill="white"/>
<path fill-rule="evenodd" clip-rule="evenodd" d="M32.5615 19.0188C32.5615 20.1566 31.6392 21.0787 30.5015 21.0787C29.3637 21.0787 28.4414 20.1566 28.4414 19.0188C28.4414 17.8813 29.3637 16.959 30.5015 16.959C31.6392 16.959 32.5615 17.8813 32.5615 19.0188Z" fill="white"/>
<path fill-rule="evenodd" clip-rule="evenodd" d="M32.6892 10.3485H23.844C23.5506 10.3485 23.3125 10.104 23.3125 9.8023V5.79947C23.3125 5.49778 23.5506 5.25327 23.844 5.25327H28.2015C28.5672 5.25327 28.9788 5.44121 29.2229 5.6853L33.0856 9.43803C33.3921 9.78987 33.1488 10.3485 32.6892 10.3485ZM18.9833 9.81681C18.9833 10.1104 18.7454 10.3485 18.4518 10.3485H17.5047H7.51002H6.76035C6.46673 10.3485 6.22865 10.1104 6.22865 9.81681V5.78497C6.22865 5.49136 6.46673 5.25327 6.76035 5.25327H10.6737H14.5994H18.4518C18.7454 5.25327 18.9833 5.49136 18.9833 5.78497V9.81681ZM35.3475 10.041C33.8508 8.08269 30.3855 5.01084 29.968 4.68822C29.3764 4.18015 28.9738 4.06494 28.0401 4.06494H9.06801H8.63039H6.18203C5.69261 4.06494 5.21562 4.48764 5.04571 4.95096C5.04571 4.95096 4.29541 6.89477 4.29541 11.5468H36.2074C35.9328 10.8736 35.6728 10.467 35.3475 10.041Z" fill="white"/>
<path fill-rule="evenodd" clip-rule="evenodd" d="M10.0618 20.1952C9.382 20.1952 8.83104 19.644 8.83104 18.9642C8.83104 18.2843 9.382 17.7332 10.0618 17.7332C10.7417 17.7332 11.2927 18.2843 11.2927 18.9642C11.2927 19.644 10.7417 20.1952 10.0618 20.1952ZM10.0618 16.2554C8.56581 16.2554 7.35303 17.4684 7.35303 18.9642C7.35303 20.46 8.56581 21.673 10.0618 21.673C11.5579 21.673 12.7705 20.46 12.7705 18.9642C12.7705 17.4684 11.5579 16.2554 10.0618 16.2554Z" fill="#4A4B4A"/>
<path fill-rule="evenodd" clip-rule="evenodd" d="M30.4837 20.1952C29.8041 20.1952 29.2529 19.644 29.2529 18.9642C29.2529 18.2843 29.8041 17.7332 30.4837 17.7332C31.1636 17.7332 31.7147 18.2843 31.7147 18.9642C31.7147 19.644 31.1636 20.1952 30.4837 20.1952ZM30.4837 16.2554C28.9877 16.2554 27.7749 17.4684 27.7749 18.9642C27.7749 20.46 28.9877 21.673 30.4837 21.673C31.9795 21.673 33.1925 20.46 33.1925 18.9642C33.1925 17.4684 31.9795 16.2554 30.4837 16.2554Z" fill="#4A4B4A"/>
<path fill-rule="evenodd" clip-rule="evenodd" d="M7.1905 17.125H4.68475C4.39072 17.125 4.1543 17.3113 4.1543 17.5477V18.3028C4.1543 18.5388 4.39279 18.7304 4.68682 18.7304H6.66275C6.70025 18.1411 6.93232 17.5605 7.1905 17.125Z" fill="white"/>
<path fill-rule="evenodd" clip-rule="evenodd" d="M36.3605 17.125H33.3535C33.5837 17.4754 33.7876 18.1559 33.8508 18.7352H36.2354C36.5292 18.7352 36.7223 18.5371 36.7675 18.3077C36.8048 18.12 36.8771 17.7433 36.8928 17.5527C36.9123 17.3173 36.6543 17.125 36.3605 17.125Z" fill="white"/>
<path fill-rule="evenodd" clip-rule="evenodd" d="M36.4073 17.1227C37.0368 16.1516 36.4871 12.1637 36.2071 11.5464H4.31299C4.31299 14.515 4.687 16.9669 4.687 17.1248H7.19047C7.79821 16.1899 8.86347 15.5544 10.0617 15.5544C11.8667 15.5544 13.3433 16.9574 13.4626 18.7321H27.0828C27.2019 16.9574 28.6785 15.5544 30.4835 15.5544C31.6826 15.5544 32.7458 16.1887 33.3533 17.1246L36.4073 17.1227Z" fill="#6BBBAE"/>
<path fill-rule="evenodd" clip-rule="evenodd" d="M4.375 3.31015C16.5517 2.82901 16.7349 2.82901 30.9307 3.31015C30.9307 1.94673 20.1808 1.92041 16.5766 1.92041C12.9722 1.92041 4.375 2.47697 4.375 3.31015Z" fill="#4A4B4A"/>
<path fill-rule="evenodd" clip-rule="evenodd" d="M14.5996 5.26221H18.347C18.6673 5.26221 19.0166 5.41098 19.0166 5.97873V9.69022C19.0166 9.81952 18.9249 10.3504 18.4466 10.3504H17.5009C17.5009 10.3504 14.8112 7.355 14.5996 5.26221Z" fill="white"/>
<path fill-rule="evenodd" clip-rule="evenodd" d="M10.679 5.26228H6.90621C7.15362 5.26228 6.23652 5.13443 6.23652 5.9788C6.23652 6.82296 6.24004 10.1379 6.24004 9.81959C6.24004 9.50112 6.11178 10.3505 6.77111 10.3505C7.43003 10.3505 7.61921 10.3743 7.61921 10.3743C7.61921 10.3743 8.97311 8.87514 9.51143 7.8418C10.05 6.80825 10.3473 6.35074 10.679 5.26228Z" fill="white"/>
<path fill-rule="evenodd" clip-rule="evenodd" d="M18.8376 9.81467C18.8376 10.0225 18.6685 10.1916 18.4609 10.1916H17.58C17.5372 10.1493 17.4936 10.1056 17.4487 10.0581C17.4385 10.0474 17.4288 10.0378 17.4186 10.0268C17.3544 9.95806 17.2883 9.88429 17.2207 9.80597C17.2189 9.80389 17.2172 9.80203 17.2154 9.79996C16.8594 9.38596 16.4646 8.84846 16.0971 8.27056C16.0935 8.26497 16.09 8.25896 16.0863 8.25316C16.0185 8.14624 15.9516 8.03787 15.8859 7.92867C15.8747 7.90961 15.8637 7.89034 15.8524 7.87148C15.7952 7.77513 15.7388 7.67836 15.6841 7.58139C15.6688 7.55383 15.6541 7.52648 15.6387 7.49913C15.5896 7.41024 15.5413 7.32135 15.4947 7.23266C15.4773 7.1993 15.4607 7.16615 15.4435 7.13299C15.4015 7.05052 15.36 6.96826 15.3207 6.88662C15.3024 6.84891 15.2852 6.81161 15.2676 6.77411C15.232 6.69765 15.1974 6.6214 15.1644 6.54618C15.147 6.50578 15.1302 6.46579 15.1137 6.426C15.084 6.35493 15.0558 6.28448 15.0293 6.21507C15.0134 6.17342 14.9982 6.13198 14.9835 6.09095C14.9599 6.02506 14.9382 5.96041 14.9178 5.89659C14.9046 5.85473 14.8917 5.81329 14.8799 5.77268C14.8623 5.71197 14.8472 5.65312 14.8329 5.59489C14.8229 5.55407 14.8134 5.51325 14.8053 5.47368C14.8008 5.4513 14.7981 5.43037 14.7941 5.40862H18.4609C18.6685 5.40862 18.8376 5.5777 18.8376 5.78532V9.81467ZM7.90823 10.1908C7.94719 10.1512 7.9876 10.1072 8.02738 10.065C8.05535 10.0353 8.0827 10.0076 8.11109 9.97671C8.17947 9.90211 8.2493 9.82379 8.31954 9.74298C8.32887 9.73241 8.33798 9.72267 8.34751 9.71169C8.42687 9.61969 8.50748 9.52334 8.58829 9.42429C8.61502 9.39155 8.64175 9.35716 8.66869 9.32338C8.72339 9.25521 8.77809 9.18662 8.833 9.11576C8.8645 9.07515 8.89578 9.03329 8.92707 8.99164C8.97742 8.92534 9.02736 8.85903 9.0773 8.79127C9.11004 8.74631 9.14236 8.70114 9.1751 8.65576C9.22296 8.58883 9.27062 8.5219 9.31787 8.45394C9.3504 8.4069 9.38272 8.35987 9.41505 8.31242C9.46146 8.24383 9.50746 8.17504 9.55305 8.10562C9.58413 8.05838 9.615 8.01114 9.64567 7.96348C9.69125 7.8922 9.7358 7.82071 9.78014 7.74902C9.80853 7.70302 9.83692 7.65723 9.86469 7.61143C9.91048 7.53518 9.95441 7.45914 9.99833 7.38289C10.0222 7.34144 10.0466 7.3 10.0698 7.25877C10.121 7.16718 10.1695 7.07643 10.2169 6.98567C10.2302 6.96039 10.2447 6.9349 10.2576 6.90962C10.317 6.794 10.373 6.67942 10.4252 6.56649C10.4372 6.54038 10.4474 6.51531 10.459 6.48941C10.4975 6.40404 10.5346 6.31908 10.5682 6.23599C10.5841 6.19642 10.5974 6.1585 10.6121 6.11954C10.638 6.05158 10.6633 5.98403 10.6852 5.91814C10.6993 5.87649 10.7109 5.83629 10.7231 5.79547C10.7416 5.73497 10.7588 5.67508 10.7735 5.61707C10.7839 5.57604 10.7924 5.53625 10.8006 5.49647C10.8069 5.46746 10.8158 5.43638 10.8207 5.40779H14.4767C14.4815 5.43659 14.4895 5.46767 14.4954 5.49709C14.5038 5.54123 14.5128 5.58557 14.5233 5.63136C14.5362 5.68565 14.5511 5.74139 14.5666 5.79754C14.5797 5.8452 14.5921 5.89244 14.6072 5.94114C14.6249 5.99853 14.6452 6.05738 14.6653 6.11602C14.6825 6.16596 14.6982 6.21486 14.7171 6.26583C14.7396 6.32634 14.7649 6.38829 14.7896 6.44983C14.8296 6.5495 14.8721 6.64999 14.9174 6.75173C14.9435 6.81037 14.9684 6.86839 14.996 6.92765C15.0266 6.99292 15.0598 7.05881 15.0923 7.1245C15.117 7.17464 15.1408 7.22458 15.1667 7.27493C15.2011 7.34227 15.2372 7.40962 15.2732 7.47696C15.2991 7.52565 15.3246 7.57414 15.3513 7.62262C15.389 7.69121 15.428 7.75959 15.4672 7.82797C15.4939 7.87479 15.5206 7.92142 15.548 7.96804C15.5888 8.03745 15.63 8.10625 15.6719 8.17504C15.6988 8.21938 15.7257 8.26331 15.7531 8.30724C15.7964 8.37707 15.8399 8.44607 15.8843 8.51465C15.9106 8.55568 15.9371 8.59608 15.9638 8.6367C16.0098 8.70673 16.0558 8.77615 16.1022 8.84432C16.1265 8.87996 16.1505 8.91435 16.1746 8.94916C16.2243 9.02086 16.2738 9.09214 16.3235 9.16155C16.3401 9.18455 16.3567 9.20652 16.3733 9.22952C16.5604 9.48666 16.7462 9.72495 16.9255 9.93651C16.935 9.9477 16.9447 9.96013 16.9543 9.97111C17.0026 10.0275 17.0492 10.0793 17.0958 10.1313C17.1132 10.1506 17.1312 10.1721 17.1484 10.1908H7.90823ZM7.80401 9.85217C7.75511 9.90398 7.706 9.95578 7.65855 10.0036C7.62913 10.0331 7.60115 10.0594 7.57235 10.0871C7.53588 10.1228 7.49942 10.1578 7.46398 10.1905H6.77668C6.56905 10.1905 6.39997 10.0217 6.39997 9.81384V5.78449C6.39997 5.57687 6.56905 5.40779 6.77668 5.40779H10.5029C10.4992 5.42726 10.4969 5.4455 10.4925 5.46539C10.4832 5.50787 10.472 5.55159 10.4604 5.59572C10.4467 5.64773 10.4322 5.70057 10.4154 5.75444C10.4011 5.80044 10.3854 5.84748 10.369 5.89472C10.3498 5.94984 10.3295 6.00579 10.3075 6.06277C10.2886 6.11125 10.2689 6.16057 10.2482 6.21009C10.2242 6.26811 10.1987 6.32675 10.172 6.3858C10.1492 6.43657 10.1258 6.48754 10.1011 6.53914C10.0727 6.59902 10.0429 6.65953 10.0122 6.72024C9.98569 6.77245 9.95917 6.82488 9.93141 6.87771C9.89887 6.93925 9.86489 7.00121 9.8305 7.06337C9.80128 7.11621 9.77227 7.16884 9.74202 7.22168C9.70576 7.28508 9.66805 7.34828 9.63013 7.41148C9.59884 7.4639 9.56796 7.51633 9.53564 7.56875C9.49606 7.63278 9.45524 7.6968 9.41422 7.76083C9.38169 7.81201 9.34936 7.8634 9.316 7.91437C9.27269 7.98006 9.22835 8.04512 9.18422 8.11018C9.15148 8.15846 9.11936 8.20716 9.086 8.25502C9.03814 8.32381 8.98944 8.39136 8.94075 8.45912C8.91008 8.5018 8.87962 8.54532 8.84875 8.58738C8.79405 8.66218 8.73872 8.73471 8.6834 8.80744C8.65791 8.841 8.63242 8.87561 8.60673 8.90876C8.44428 9.11887 8.281 9.31841 8.12124 9.50303C8.10073 9.52686 8.08063 9.5482 8.06012 9.57162C8.00169 9.63813 7.94305 9.70443 7.88586 9.76639C7.85809 9.79643 7.83136 9.82337 7.80401 9.85217ZM18.4609 5.09946H14.6147C14.6133 5.09946 14.6122 5.09863 14.611 5.09863H10.8618H6.77668C6.39852 5.09863 6.09082 5.40634 6.09082 5.78449V9.81384C6.09082 10.192 6.39852 10.4999 6.77668 10.4999H7.52511H7.52573H17.4514L17.4522 10.5007H18.4609C18.839 10.5007 19.1467 10.193 19.1467 9.81467V5.78532C19.1467 5.40716 18.839 5.09946 18.4609 5.09946Z" fill="black"/>
<path fill-rule="evenodd" clip-rule="evenodd" d="M10.0619 20.0404C9.46842 20.0404 8.98542 19.5576 8.98542 18.964C8.98542 18.3704 9.46842 17.8876 10.0619 17.8876C10.6553 17.8876 11.1381 18.3704 11.1381 18.964C11.1381 19.5576 10.6553 20.0404 10.0619 20.0404ZM10.0619 17.5786C9.29789 17.5786 8.67627 18.2 8.67627 18.964C8.67627 19.728 9.29789 20.3494 10.0619 20.3494C10.8258 20.3494 11.4473 19.728 11.4473 18.964C11.4473 18.2 10.8258 17.5786 10.0619 17.5786Z" fill="black"/>
<path fill-rule="evenodd" clip-rule="evenodd" d="M10.0616 21.5182C8.65325 21.5182 7.5074 20.3726 7.5074 18.964C7.5074 17.5556 8.65325 16.4099 10.0616 16.4099C11.47 16.4099 12.6157 17.5556 12.6157 18.964C12.6157 20.3726 11.47 21.5182 10.0616 21.5182ZM10.0616 16.1006C8.48272 16.1006 7.19824 17.3853 7.19824 18.964C7.19824 20.5429 8.48272 21.8274 10.0616 21.8274C11.6404 21.8274 12.9248 20.5429 12.9248 18.964C12.9248 17.3853 11.6404 16.1006 10.0616 16.1006Z" fill="black"/>
<path fill-rule="evenodd" clip-rule="evenodd" d="M30.4835 21.5182C29.0751 21.5182 27.9293 20.3726 27.9293 18.964C27.9293 17.5556 29.0751 16.4099 30.4835 16.4099C31.8919 16.4099 33.0378 17.5556 33.0378 18.964C33.0378 20.3726 31.8919 21.5182 30.4835 21.5182ZM30.4835 16.1006C28.9046 16.1006 27.6201 17.3853 27.6201 18.964C27.6201 20.5429 28.9046 21.8274 30.4835 21.8274C32.0624 21.8274 33.3469 20.5429 33.3469 18.964C33.3469 17.3853 32.0624 16.1006 30.4835 16.1006Z" fill="black"/>
<path fill-rule="evenodd" clip-rule="evenodd" d="M30.4835 20.0404C29.8903 20.0404 29.4075 19.5576 29.4075 18.964C29.4075 18.3704 29.8903 17.8876 30.4835 17.8876C31.077 17.8876 31.5598 18.3704 31.5598 18.964C31.5598 19.5576 31.077 20.0404 30.4835 20.0404ZM30.4835 17.5786C29.7198 17.5786 29.0981 18.2 29.0981 18.964C29.0981 19.728 29.7198 20.3494 30.4835 20.3494C31.2475 20.3494 31.8691 19.728 31.8691 18.964C31.8691 18.2 31.2475 17.5786 30.4835 17.5786Z" fill="black"/>
<mask id="mask0_1501_34432" style="mask-type:alpha" maskUnits="userSpaceOnUse" x="4" y="1" width="34" height="18">
<path d="M4 1H37.0484V18.8896H4V1Z" fill="white"/>
</mask>
<g mask="url(#mask0_1501_34432)">
<path fill-rule="evenodd" clip-rule="evenodd" d="M36.6159 18.2776C36.5881 18.4175 36.4721 18.5807 36.2352 18.5807H33.9872C33.9218 18.1149 33.7815 17.6286 33.6151 17.2795H36.3606C36.4891 17.2795 36.6134 17.3275 36.6853 17.4057C36.7244 17.4483 36.7427 17.4935 36.7389 17.5399C36.728 17.6713 36.6855 17.9264 36.6159 18.2776ZM30.4836 15.4001C28.6639 15.4001 27.1351 16.7845 26.9412 18.5778H13.6043C13.4105 16.7845 11.8817 15.4001 10.0618 15.4001C8.87869 15.4001 7.7807 15.9853 7.1079 16.9703H4.82759C4.8222 16.9239 4.81515 16.8646 4.80604 16.7882C4.71549 16.0286 4.47823 14.0381 4.46808 11.701H36.1014C36.3728 12.5052 36.8266 15.9786 36.3181 16.9685L33.4361 16.9701C32.7645 15.9853 31.6671 15.4001 30.4836 15.4001ZM6.5213 18.5758H4.68689C4.48196 18.5758 4.30895 18.4508 4.30895 18.3027V17.5476C4.30895 17.3999 4.47761 17.2797 4.68482 17.2797H6.92908C6.76746 17.5957 6.58014 18.0567 6.5213 18.5758ZM5.20802 5.00804C5.34954 4.62264 5.75857 4.22376 6.19868 4.22376H28.0435C28.9629 4.22376 29.3213 4.33855 29.8758 4.8143C30.238 5.09445 33.7148 8.16132 35.2238 10.1356C35.5073 10.5071 35.7379 10.8575 35.9739 11.3921H4.46808C4.48424 6.94564 5.19994 5.02938 5.20802 5.00804ZM25.1227 3.22046V3.91461H9.19137V3.2273C15.4685 2.99751 17.973 2.99523 25.1227 3.22046ZM4.59468 3.19829C4.87711 3.03377 5.84187 2.71343 9.13356 2.40531C11.9383 2.14278 14.9577 2.02343 16.5764 2.02343C28.0899 2.02343 30.5091 2.7184 30.796 3.20244C23.804 2.9656 20.227 2.84708 16.8972 2.84708C13.5871 2.84708 10.5231 2.96415 4.59468 3.19829ZM36.9126 17.1962C36.8394 17.1168 36.7412 17.058 36.6322 17.0192C37.1639 15.7379 36.6092 12.0751 36.3504 11.4891C36.3502 11.4889 36.3504 11.4884 36.3502 11.4882C36.0699 10.8001 35.7953 10.3747 35.4692 9.94786C33.9435 7.95163 30.4309 4.85243 30.0708 4.57477C29.4672 4.05655 29.0315 3.91461 28.0435 3.91461H25.7489V3.24036C27.2515 3.28864 28.954 3.34603 30.9272 3.41296C30.9282 3.41317 30.9295 3.41317 30.9307 3.41317C30.9575 3.41317 30.9829 3.40281 31.0022 3.38416C31.0223 3.36468 31.0337 3.33795 31.0337 3.31019C31.0337 2.66929 29.5352 1.81726 16.5764 1.81726C15.3773 1.81726 11.4961 1.95132 8.40937 2.27146C8.33208 1.89434 8.13938 1.56364 7.8553 1.33239C7.53371 1.07069 7.12365 0.957555 6.70074 1.01433C6.59154 1.02883 6.48338 1.05494 6.37915 1.09162C6.34144 1.10488 6.31616 1.14073 6.31637 1.18092C6.31678 1.22092 6.34248 1.25635 6.3806 1.26919C6.86858 1.43289 7.19845 1.84316 7.30205 2.39972C5.55405 2.62599 4.27165 2.9254 4.27165 3.31019C4.27165 3.33816 4.28325 3.36489 4.30335 3.38437C4.32345 3.40384 4.34935 3.41379 4.37877 3.41296C5.95686 3.35059 7.33251 3.29651 8.5654 3.25051V3.91461H6.19868C5.60171 3.91461 5.09343 4.4231 4.91876 4.89926C4.88809 4.97862 4.1755 6.87954 4.15934 11.3921H4.15851V11.5467C4.15851 13.9683 4.40592 16.0435 4.49895 16.8247C4.50641 16.8854 4.51284 16.9405 4.51843 16.9888C4.21798 17.0501 4 17.2726 4 17.5476V18.3027C4 18.6238 4.30812 18.8851 4.68689 18.8851H6.80786L6.81698 18.7401C6.85946 18.0778 7.15038 17.4968 7.32153 17.2074C7.93238 16.2693 8.9566 15.7093 10.0618 15.7093C11.768 15.7093 13.194 17.0418 13.3084 18.7428L13.3181 18.887H27.2271L27.2368 18.7428C27.3514 17.0418 28.7772 15.7093 30.4836 15.7093C31.5886 15.7093 32.6118 16.2685 33.2216 17.2055L33.2243 17.2096C33.4361 17.5323 33.635 18.1808 33.6969 18.7519L33.7121 18.8897H36.2352C36.6322 18.8897 36.8649 18.6124 36.919 18.3375C36.9917 17.9701 37.0348 17.7103 37.0469 17.5652C37.0576 17.4328 37.0102 17.3019 36.9126 17.1962Z" fill="black"/>
</g>
<path fill-rule="evenodd" clip-rule="evenodd" d="M33.0306 9.97018C32.9666 10.1105 32.8394 10.1942 32.6898 10.1942H23.8501C23.6423 10.1942 23.4732 10.0187 23.4732 9.80296V5.80262C23.4732 5.58671 23.6423 5.41141 23.8501 5.41141H28.205C28.5139 5.41141 28.8888 5.57013 29.1182 5.7993L32.9695 9.54043C33.0938 9.68299 33.0824 9.85601 33.0306 9.97018ZM29.3351 5.57904C29.0496 5.29392 28.5954 5.10205 28.205 5.10205H23.8501C23.472 5.10205 23.1641 5.41618 23.1641 5.80262V9.80296C23.1641 10.1892 23.472 10.5033 23.8501 10.5033H32.6898C32.9598 10.5033 33.1983 10.3481 33.312 10.0982C33.4291 9.84067 33.387 9.54913 33.1937 9.32783L29.3351 5.57904Z" fill="black"/>
</svg>
